<?xml version="1.0" encoding="UTF-8" standalone="no"?>
<!-- Created with Inkscape (http://www.inkscape.org/) -->

<svg
   xmlns:dc="http://purl.org/dc/elements/1.1/"
   xmlns:cc="http://creativecommons.org/ns#"
   xmlns:rdf="http://www.w3.org/1999/02/22-rdf-syntax-ns#"
   xmlns:svg="http://www.w3.org/2000/svg"
   xmlns="http://www.w3.org/2000/svg"
   xmlns:sodipodi="http://sodipodi.sourceforge.net/DTD/sodipodi-0.dtd"
   xmlns:inkscape="http://www.inkscape.org/namespaces/inkscape"
   id="svg2463"
   sodipodi:version="0.32"
   inkscape:version="0.92.2 2405546, 2018-03-11"
   width="365.19577"
   height="365.19577"
   xml:space="preserve"
   sodipodi:docname="logo.svg"
   inkscape:output_extension="org.inkscape.output.svg.inkscape"
   version="1.0"
   viewBox="0 0 342.37103 342.37103"><metadata
     id="metadata2468"><rdf:RDF><cc:Work
         rdf:about=""><dc:format>image/svg+xml</dc:format><dc:type
           rdf:resource="http://purl.org/dc/dcmitype/StillImage" /></cc:Work></rdf:RDF></metadata><defs
     id="defs2466"><inkscape:perspective
       sodipodi:type="inkscape:persp3d"
       inkscape:vp_x="0 : 526.18109 : 1"
       inkscape:vp_y="0 : 999.99999 : 0"
       inkscape:vp_z="744.09446 : 526.18109 : 1"
       inkscape:persp3d-origin="372.04723 : 350.78738 : 1"
       id="perspective2470" /><clipPath
       clipPathUnits="userSpaceOnUse"
       id="clipPath2480"><path
         d="M 0,2834.65 V 0 h 2834.65 v 2834.65 z"
         id="path2482"
         inkscape:connector-curvature="0" /></clipPath></defs><sodipodi:namedview
     inkscape:window-height="1034"
     inkscape:window-width="1678"
     inkscape:pageshadow="2"
     inkscape:pageopacity="0.0"
     guidetolerance="10.0"
     gridtolerance="10.0"
     objecttolerance="10.0"
     borderopacity="1.0"
     bordercolor="#666666"
     pagecolor="#ffffff"
     id="base"
     showgrid="false"
     inkscape:zoom="0.91971496"
     inkscape:cx="378.66082"
     inkscape:cy="219.97306"
     inkscape:window-x="0"
     inkscape:window-y="14"
     inkscape:current-layer="g2472"
     inkscape:window-maximized="0" /><g
     id="g2472"
     inkscape:groupmode="layer"
     inkscape:label="paris_tech_cont_quad"
     transform="matrix(1.25,0,0,-1.25,-156.57025,717.48723)"><g
       id="g2478"
       clip-path="url(#clipPath2480)"
       transform="matrix(0.09662456,0,0,0.09662456,125.2562,300.09297)"><path
         d="M 0,0 H 2834.65 V 2834.65 H 0 Z"
         style="fill:#ffffff;fill-opacity:1;fill-rule:nonzero;stroke:none"
         id="path2484"
         inkscape:connector-curvature="0" /><path
         d="m 92.7227,918.781 h 2649.2 v 1823.14 h -2649.2 z"
         style="fill:#231f20;fill-opacity:1;fill-rule:nonzero;stroke:none"
         id="path2486"
         inkscape:connector-curvature="0" /><path
         d="m 2739.62,95.5586 -1.08,700.3634 h -118.75 c -12.36,-16.492 -4,-90.75 -41.61,-104.934 -127.26,28.543 -11.29,43.012 -54.96,104.934 -5.46,-0.301 -57.37,0.039 -62.86,0 5.94,-0.801 28.11,-25.692 -5.11,-54.231 -44.58,-293.55 37.36,-413.203 -4.08,-645.9527 l 288.45,-0.1797"
         style="fill:#c81750;fill-opacity:1;fill-rule:nonzero;stroke:none"
         id="path2488"
         inkscape:connector-curvature="0" /><path
         d="m 845.094,579.039 c 47.66,22.473 48.008,72.242 50.218,104.891 -14.433,16.191 -70.937,17.199 -93.578,13.07 -31.367,-26.262 -4.132,-73.141 -22.863,-103.621 12.356,-26.367 45.504,-7.91 66.223,-14.34"
         style="fill:#c81750;fill-opacity:1;fill-rule:nonzero;stroke:none"
         id="path2490"
         inkscape:connector-curvature="0" /><path
         d="m 1117.34,231.559 14.12,-4.047 c 12.94,-2.614 30.43,-3.172 43.97,2.527 -3.55,9.391 -8.33,18.281 -14.1,25.481 -15.45,-7.379 -30.18,-15.211 -43.99,-23.961"
         style="fill:#c81750;fill-opacity:1;fill-rule:nonzero;stroke:none"
         id="path2492"
         inkscape:connector-curvature="0" /><path
         d="m 1121.06,548.422 c -28.75,76.328 75.1,107.43 115.13,154.019 l 53.73,-29.953 c -5.84,-52.136 -101.05,-61.758 -95.25,-118.258 9.95,-8.421 18.62,-22.621 31.55,-25.351 4.51,-14.039 -7.24,-22.598 -15.76,-31.117 -41.78,-16.852 -63.28,24.058 -89.4,50.66 z m 54.37,-318.383 c 11.3,-28.199 12.64,-63.051 -0.88,-85.078 l -139.03,-4.852 v 17.801 c 24.41,32.11 51.41,54.828 81.82,73.649 l -27.91,7.871 c -39.72,27.14 53.71,66.07 68.2,76.691 l 37.56,-60.133 c -1.13,-13.558 -9.21,-21.468 -19.76,-25.949 z M 898.922,163.23 c -29.918,51.68 4.933,137.821 13.211,187.129 7.055,7.02 14.328,16.582 26.461,12.813 8.336,-27.024 -31.324,-44.613 -4.801,-67.953 27.437,8.109 63.477,-16.571 90.997,4.57 -14.38,23.473 -44.345,11.652 -64.688,21.16 v 12.821 l 61.318,3.71 c 9.54,-13.019 52.92,-25.289 43.34,-50.082 C 1023.93,229.77 954.109,196.148 898.922,163.23 Z m -48.293,291.481 c 6.344,10.59 18.883,4.328 27.949,6.019 3.297,-25.871 43.645,6.141 28.086,-27.652 h -4.539 c -17.098,-8.93 -45.152,0 -51.496,21.633 z m 79.531,-15.223 c 20.797,12.09 49.711,10.192 44.914,-29.808 h -33.621 c -6.469,8.058 -16.183,16.07 -11.293,29.808 z m 25.25,281.453 c 5.82,9.399 14.34,27.168 31.199,21.348 -1.414,-14.098 -8.535,-40.148 -31.199,-29.48 z m 39.512,-315.3 c 32.338,-7.071 67.298,17.539 91.038,-8.219 -10.67,-22.473 -10.67,-59.942 -47.93,-38.762 -16.61,12.961 -53.999,7.11 -51.421,38.762 z m 3.558,294.179 c 2.43,26.961 34.8,16.391 52.79,24.692 l 3.66,-11.703 c -16.9,-12.989 -28.9,-41.27 -56.45,-30.59 z m 96.02,-204.808 c -20.49,-14.102 -55.08,-9.274 -78.06,-4.563 5.97,9.242 7.36,20.051 8.35,30.481 14.63,11.832 30.14,37.629 56.54,29.461 10.75,-15.18 15.57,-34.172 13.17,-55.379 z m -0.59,213.808 -5.82,-73.531 c -2.91,-11.559 -11.72,-34.5 -32.4,-25.84 -25.04,-5.91 -11.91,24.571 -14.76,35.832 22.09,18.789 28.08,59.297 52.98,63.539 z M 860.453,490.449 h -17.91 c -25.207,9.242 -80.488,22.211 -82.758,51.539 34.856,-9.226 65.922,-26.816 100.668,-38.66 z m 433.177,-76.488 c -33.54,-1.18 -62.44,-49.57 -91.19,-29.481 16.85,47.122 53.93,85.79 69.62,131.739 27.58,62.551 72.56,198.953 53.35,280.172 h -128.75 c -41.93,-11.84 -10.89,-120.2 -54.26,-127.34 -11.9,29.629 -8.39,64.949 -42.45,126.57 h -69.55 c 5.29,-46.441 -1.85,-48.68 -5.61,-53.332 -23.88,-1.269 -21.5,36.332 -51.536,16.359 -26.324,4.75 -33.445,-37.707 -61.121,-29.488 -9.422,22.488 -35.945,51.719 -64.832,34.238 25.16,-54.289 151.179,-76.609 91.293,-165.886 -12.133,-25.934 -2.461,-63.492 -34.739,-76.582 -56.554,15.332 -109.214,36.519 -165.64,50.648 6.039,-21.187 -9.606,-50.648 -3.68,-71.887 60.106,-8.07 78.106,-70.519 129.527,-89.339 10.934,-8.25 15.688,-17.582 13.415,-30.614 -36.149,-15.347 -74.551,16.5 -108.059,30.614 -8.445,-3.43 -3.832,-11.782 -4.891,-17.582 31.153,-36.622 131.953,-21.149 99.535,-97.551 -27.582,-62.508 -21.519,-166.028 -116.234,-174.43 -8.551,-18.75 14.227,-17.348 21.59,-25.7187 81.41,-8.25 165.566,69.5317 233.872,4.7188 22.74,0 51.64,14.3129 69.66,-4.2305 h 204.58 c 38.55,74.4924 8.76,122.1524 12.39,190.4614 4.53,17.308 -47.85,34.929 -87.48,25.421 -7.1,4.778 -2.45,14.231 -3.49,22.329 26.31,30.621 131.89,-15.211 107.9,59 0,5.8 0,20.011 -13.22,21.191"
         style="fill:#c81750;fill-opacity:1;fill-rule:nonzero;stroke:none"
         id="path2494"
         inkscape:connector-curvature="0" /><path
         d="M 293.863,720.41 C 165.586,728.648 96.8164,715.488 95.082,715.98 V 614.328 h 23.965 c 28.887,-8.637 48.531,-9.226 77.547,-9.226 107.586,-10.973 198.191,4.808 304.976,10.628 -12.066,3.579 -24.246,6.508 -35.261,5.79 -18.125,13.691 -29.551,22.57 -25.27,44.261 28.301,30.18 80.156,5.239 113.363,23.219 29.348,-11.281 9.762,-43.262 16.731,-63.07 -2.895,-5.578 -6.121,-5.102 -9.535,-8.18 32.683,0.23 67.519,-0.809 105.074,-4.25 v 105.301 c -158.774,10.187 -270.797,-4.582 -372.809,1.609"
         style="fill:#c81750;fill-opacity:1;fill-rule:nonzero;stroke:none"
         id="path2496"
         inkscape:connector-curvature="0" /><path
         d="m 1486.66,509.02 c -23.09,-5.93 -52.52,-10.579 -73.53,3.289 10.59,23.722 36.17,9.589 53.93,13.211 6.15,-8.321 18.85,1.128 19.6,-16.5 z m 76.18,-250.25 v -31 c -41.23,-14.258 -79.46,-59.211 -124.52,-39.411 v 28.121 c 18.04,8.418 38.95,-16.941 54.14,22.54 24.7,-2.95 44.94,33.531 70.38,19.75 z m -35.14,422.82 -19.47,-21.789 c -7.61,0 -21.3,23.289 -23.5,32.668 6.08,7.043 39.87,-2.66 42.97,-10.879 z m 1.67,-50.391 c 9.59,-7.058 29.9,-7.617 19.39,-34.07 -12,-10.75 -20.99,17.199 -32.25,20.621 z m 23.03,-286.23 v -35.957 c -11.55,1.91 -26.87,-5.973 -35.55,5.988 2.35,27.789 24,25.871 35.55,29.969 z m 13.02,93.922 h -66.84 v 24.621 h 66.84 z M 1603,136.449 c -15.82,-36.9685 -45.05,-10.07 -65.25,0 -16.67,6.75 -30.04,-42.0701 -45.7,-6.73 -0.76,8.48 3.77,11.84 5.28,18.562 36.69,25.258 74.85,4.938 105.67,-11.832 z m -200.25,146.602 v 12.84 h 45.79 v -12.84 z m 78.29,301.679 c -14.32,-11.179 -34.28,-16.351 -50.78,-18.242 l -9.98,33.114 c 18.96,1.636 53.57,11.019 60.76,-14.872 z m -56.59,51.391 h 35.18 V 623.32 h -35.18 z m 216.3,-27.012 v -39.668 c -18.45,2.137 -40.73,-6.07 -56.79,6.36 7.98,28.801 38.34,27 56.79,33.308 z M 1497.33,756.02 c 51.64,-12.829 105.92,-18.989 160.79,-21.239 v 61.18 h -229.67 c -0.28,-48.441 -37.03,-116.289 -37.03,-116.289 20.15,0.187 39.76,-1.184 57.53,-9.633 v -12.84 c -18.76,4.629 -37.97,7.039 -57.53,8.172 V 466.672 h 25.35 c 1.48,-4.703 5.99,-7.211 5,-12.953 l -5,-9.489 h -25.35 v -24.191 c 8.52,-0.461 17.65,-2.777 25.35,-0.57 0.44,-1.09 0.87,-2.207 1.65,-3.199 11.94,-2.211 20.37,-18.032 35.21,-9.719 v -12.789 h -26.71 c -5.15,0 -11.62,1.457 -15.64,6.226 -6.26,-2.488 -13.03,-3.539 -19.86,-2.566 v -18.274 c 20.15,7.473 46.5,-1.027 65.86,-1.949 2.22,-4.808 6.72,-7.211 5.23,-13.09 l -5.23,-9.3 c -20.12,7.3 -44.93,3.429 -65.86,5.562 v -153.75 c 7.23,-1.351 14.47,-3.422 20.15,-4.781 2.13,-5.84 8.19,-9.36 8.19,-16.34 -7.79,-4.711 -18.05,-5.828 -28.34,-3.82 V 95.7383 h 266.7 V 181.68 c -10.23,-2.008 -35.56,-3.16 -43.38,1.441 0,7.129 26.59,61.039 33.91,62.399 l 9.47,114.851 c -20.98,-2.133 -45.57,1.738 -65.75,-5.562 l -5.19,9.3 c -1.4,5.879 3.09,8.282 5.19,13.09 19.52,0.922 45.86,9.422 65.75,1.949 v 18.274 c -10.98,-1.352 -22.57,1.547 -30.42,9.129 -0.8,6.008 3.72,8.32 5.29,12.918 7.64,-2.207 16.7,0.109 25.13,0.57 v 24.191 h -25.13 l -5.29,9.489 c -0.8,5.742 3.72,8.25 5.29,12.953 h 25.13 v 198.699 c -19.37,-1.133 -38.87,-3.543 -57.44,-8.172 v 12.84 c 17.79,8.449 37.55,9.82 57.44,9.633 v 39.129 c -47.44,2.621 -94.52,7.578 -139.14,11.32 -11.27,6 -27.69,4.66 -35.34,16.508 3.02,8.172 8.41,9.391 13.69,9.391"
         style="fill:#c81750;fill-opacity:1;fill-rule:nonzero;stroke:none"
         id="path2498"
         inkscape:connector-curvature="0" /><path
         d="m 315.219,752.781 c 113.297,0 237.785,10.297 352.668,1.449 v 43.161 H 93.9336 c -0.6016,-17.922 0,-45.993 0,-45.993 71.8244,11.852 161.1014,1.383 221.2854,1.383"
         style="fill:#c81750;fill-opacity:1;fill-rule:nonzero;stroke:none"
         id="path2500"
         inkscape:connector-curvature="0" /><path
         d="m 227.125,544.43 c -32.152,0 -67.074,31.371 -99.289,41.781 H 111.762 L 95.625,582.672 94.9062,95.7383 H 668.617 V 588.281 C 518.91,605.531 388.363,533.039 227.125,544.43"
         style="fill:#c81750;fill-opacity:1;fill-rule:nonzero;stroke:none"
         id="path2502"
         inkscape:connector-curvature="0" /><path
         d="m 2305.23,474.879 c -13.08,1.211 -42.62,4.062 -45.1,22.883 -3.03,20.5 -4.19,49.008 41.33,40.668 33.85,-8.75 47.38,-55.571 3.77,-63.551 z M 2224.04,219.16 c -14.27,-16.051 -10.25,-88.031 -44.81,-50.711 -36.86,96.922 13.03,163.653 21.37,249.781 21.49,23.489 45.21,32.161 58.7,26.192 3.31,-0.711 21.34,-43.891 24.35,-44.512 4.08,-59.289 -31.85,-62.219 2.81,-160.48 -9.37,-16.071 -51.54,-7.871 -62.42,-20.27 z m -85.7,314.012 c 7.2,9.527 32.46,22.898 45.85,20.598 14.33,-5.872 23.94,-33.04 18.01,-51.879 -1.28,-15.262 -18.01,-11.672 -30.07,-11.672 -16.85,5.883 -38.64,23 -33.79,42.953 z m -48.62,36.918 c -4.98,-20.051 -29.94,-43.442 -61.12,-37.52 -15.67,11.86 -10.44,34.321 -14.06,50.739 3.62,11.761 38.17,21.132 52.68,17.543 5.96,-8.192 27.16,-19 22.5,-30.762 z m -70.38,98.961 c 7.12,-28.34 -31.77,-33.379 -46.42,-34.942 -16.27,8.661 -36.92,40.34 -26.07,66.891 10.9,10.809 19.92,24.852 39.86,19.41 10.64,-17.539 41.58,-26.441 32.63,-51.359 z m -79.98,-472.313 v 43.703 l -33.07,31.239 -13.92,46.879 c -16.21,71.632 2.35,154.793 15.26,181.781 -0.58,-0.488 -0.7,-0.649 -1.24,-0.871 -12.04,3.621 -31.22,-7.028 -38.48,8.133 10.88,17.777 -4.65,44.91 13.31,60.027 13.13,2.461 45.74,1.812 54.13,-7.57 -0.87,-14.61 -1.46,-35.379 -14.72,-50.008 13.77,2.859 28.89,0.449 39.65,-10.36 -3.45,-137.062 9.78,-229.73 20.96,-355.441 z m -130.05,452.59 c -23.08,19.723 -37.32,42.453 -31.57,73.461 14.48,33.941 63.22,22.633 83.41,8.43 15.48,-22.649 43.25,-49.528 0.66,-61.41 4.23,-54.7 -35.51,-46.079 -52.5,-20.481 z M 2385.07,423.18 c -33.53,81.32 42.94,351.98 -80.67,374.211 -13.51,1.949 -24.91,-3.743 -35.61,-12.653 21.58,-15.41 37.92,-38.41 41.56,-64.566 -28.86,-63.551 -88.73,14.129 -129.56,-7.121 V 661.34 c -16.9,-14.059 -28.91,-32.93 -52.74,-25.828 -14.51,16.488 -33.72,28.168 -26.59,51.566 14.65,30.633 48.07,18.871 69.69,33.094 -0.54,0.769 -0.94,1.476 -1.33,2.219 -41.03,10.007 -35.64,74 -105.01,74 h -132.44 c -61.51,-18.95 -137.2,-54.102 -208.07,-0.43 l 13.38,-87.332 8.77,-29.828 -0.24,-26.082 31.22,-27.168 -32.48,-27.75 11.05,-67.18 c 24.49,-7.293 50.87,-8.48 52.05,-30.93 -4.49,-36.66 -31.99,-78.703 -33,-116.613 -1.63,-46.93 24.44,-240.566 23.7,-287.3397 25.31,2.3125 146.44,7.2107 171.2,19.8127 0.11,-0.942 33.72,-18.8127 33.72,-19.8127 43.02,-4.1602 99.27,-14.8399 85.25,59.8007 L 2057.8,353.98 c -36.95,101.61 31.12,126.93 53.87,128.098 l 17.91,-16.316 c -6.3,-20.16 -9.62,-39.532 -11.37,-58.282 4.51,-7.57 8.21,-15.609 5.78,-28.332 1.5,-11.949 -1.68,-18.988 -6.17,-23.828 7.15,-92.109 51.18,-172.289 52,-260.2497 l 116,0.668 42.21,32.8707 -8.84,81.692 4.89,77.051 -2.63,143.429 c 17.81,-4.121 35.36,-9.121 55.3,-16.82 l 8.32,9.219"
         style="fill:#c81750;fill-opacity:1;fill-rule:nonzero;stroke:none"
         id="path2504"
         inkscape:connector-curvature="0" /><path
         d="m 719.281,1393.21 c 14.293,0 51.449,-3.34 77.16,0.95 80.539,13.42 122.071,39.59 122.071,97.1 0,57.51 -36.418,77.98 -147.219,77.98 H 669.332 V 1244 c 7.938,0.47 16.465,1.19 24.969,1.19 7.949,0 15.898,-0.72 24.98,-1.19 z m 0,157.47 c 17.149,0.94 57.731,1.43 82.305,-0.48 45.152,-3.33 64.59,-29 64.59,-61.32 0,-42.3 -33.153,-72.25 -90.309,-77 -19.429,-1.42 -42.293,-1.42 -56.586,0 v 138.8"
         style="fill:#b0afaf;fill-opacity:1;fill-rule:nonzero;stroke:none"
         id="path2506"
         inkscape:connector-curvature="0" /><path
         d="m 1076.44,1383.51 -9.22,-3.59 c -20.91,-8.19 -20.3,-7.17 -58.4,-15.37 -44.875,-9.74 -90.984,-15.36 -93.437,-66.6 -1.235,-32.27 32.57,-56.86 70.691,-58.91 37.496,-2.04 74.996,14.35 87.286,45.59 v -39.44 h 75.01 v 8.7 h -25.82 v 142.94 c 0,37.91 -6.76,73.25 -87.91,76.84 -22.14,1.02 -27.67,-1.02 -43.656,-3.08 -18.445,-2.55 -35.648,-8.19 -47.941,-12.8 v -68.65 h 11.062 l 13.528,28.68 c 11.679,24.6 22.133,51.24 62.087,47.66 39.96,-3.59 46.72,-25.62 46.72,-49.18 z m 0,-32.28 c 0,-13.32 0.61,-21.51 -1.23,-34.84 -4.3,-29.7 -27.67,-62.5 -66.39,-64.55 -32.586,-2.04 -47.961,23.57 -45.496,47.15 5.528,52.75 25.824,46.09 88.526,65.56 l 24.59,7.68 v -21"
         style="fill:#b0afaf;fill-opacity:1;fill-rule:nonzero;stroke:none"
         id="path2508"
         inkscape:connector-curvature="0" /><path
         d="m 1288.78,1245.19 h -111.27 v 8.7 h 27.67 v 204.92 h -28.9 v 9.23 h 71.93 v -46.63 c 3.08,16.92 28.89,48.16 69.47,48.16 11.67,0 22.14,-2.56 33.8,-7.68 v -80.95 h -11.66 l -14.77,37.4 c -10.45,26.13 -18.43,43.04 -34.42,35.35 -41.8,-19.98 -38.12,-68.14 -38.12,-113.21 v -86.59 h 36.27 v -8.7"
         style="fill:#b0afaf;fill-opacity:1;fill-rule:nonzero;stroke:none"
         id="path2510"
         inkscape:connector-curvature="0" /><path
         d="m 1459.94,1519.78 c 0,-14.35 -14.14,-24.59 -30.12,-24.59 -15.37,0 -29.51,11.27 -29.51,24.07 0,12.81 13.53,25.11 28.9,25.11 16.59,0 30.73,-11.28 30.73,-24.59 z m -77.45,-274.59 v 8.7 h 28.27 v 204.92 h -26.44 v 9.23 h 74.38 v -214.15 h 25.22 v -8.7 h -101.43"
         style="fill:#b0afaf;fill-opacity:1;fill-rule:nonzero;stroke:none"
         id="path2512"
         inkscape:connector-curvature="0" /><path
         d="m 1667.36,1415.78 c -11.68,34.84 -23.35,48.67 -55.32,48.67 -27.66,0 -62.7,-9.22 -65.16,-37.41 -1.85,-25.09 29.51,-35.34 57.78,-43.02 47.95,-13.84 103.89,-28.18 102.06,-72.75 -1.24,-42.52 -43.65,-73.77 -101.44,-72.74 -33.19,0.51 -70.7,11.27 -83.6,18.95 v 73.26 h 11.06 l 12.9,-36.88 c 14.15,-41.5 30.13,-42.02 55.34,-44.06 35.03,-3.08 75,11.26 78.07,39.96 4.3,35.33 -52.25,44.56 -87.91,55.32 -25.2,7.69 -74.39,21.51 -74.39,63.53 0,49.18 63.93,65.57 97.75,65.57 28.27,0 60.86,-9.22 72.54,-15.37 v -67.11 h -11.68 l -8,24.08"
         style="fill:#b0afaf;fill-opacity:1;fill-rule:nonzero;stroke:none"
         id="path2514"
         inkscape:connector-curvature="0" /><path
         d="m 1965.61,1573.73 h -299.53 l 1.89,-11.36 0.97,-7.2 -1.05,-7.83 -1.93,-11.5 5.74,0.71 c 28.19,2.48 63.27,5.53 120.2,5.68 0,-8.66 0,-303.75 0,-303.75 l 29.41,0.85 29.32,-0.85 0.1,4.57 c 0,0 0,290.3 0,299.11 39.46,-0.14 77.97,-1.95 114.44,-5.6 l 5.54,-0.54 -1.09,8.56 -0.93,10.59 0.8,9.37 1.14,9.24 -5.02,-0.05"
         style="fill:#ffffff;fill-opacity:1;fill-rule:nonzero;stroke:none"
         id="path2516"
         inkscape:connector-curvature="0" /><path
         d="m 1985.63,1415.53 c 3.84,21.88 21.14,44.54 46.82,45.51 10.56,0.5 19.31,-2.44 26.07,-8.71 9.01,-8.4 14.42,-22.89 14.84,-39.73 0,-0.01 0.3,-12.56 0.49,-19.53 h -92.2 c 1.22,6.86 3.98,22.46 3.98,22.46 z m 129.32,-82.91 -0.99,-10.14 c -2.99,-29.77 -27.17,-70.63 -71.6,-68.25 -42.58,2.01 -61.58,32.4 -61.58,98.54 0,0 0,15.57 0,21.69 8.37,0 153.21,0 153.21,0 l 0.46,3.92 c 0.36,3.13 0.55,6.28 0.55,9.42 0,21.21 -8.25,42.33 -23.35,59.15 -19.12,21.33 -46.45,32.94 -76.93,32.69 -62.27,-1.01 -110.36,-51.67 -114.44,-120.46 -1.86,-34.28 9.54,-66.07 32.11,-89.53 22.24,-23.11 52.82,-35.56 86.12,-35.04 50.53,0.98 91.78,37.96 95.95,86.01 0,0.02 1.01,12 1.01,12 h -20.52"
         style="fill:#ffffff;fill-opacity:1;fill-rule:nonzero;stroke:none"
         id="path2518"
         inkscape:connector-curvature="0" /><path
         d="m 2279.56,1481.18 c -79.49,-2.83 -122.35,-65.37 -122.35,-122.78 0,-59.93 42.34,-122.25 113.2,-122.77 37.69,-0.45 84.84,13.17 95.41,80.59 l 2.69,16.4 h -19.98 l -3.74,-20.03 c -5.18,-26.27 -24.36,-56.82 -61.36,-56.31 -57.02,0.46 -63.18,51.44 -64.47,99.17 -0.79,30.48 2.78,71.34 24.1,92.83 10.02,10.11 23.35,15.08 39.61,14.8 25.21,-0.45 40.24,-17.81 53.62,-61.91 0.04,-0.12 7.2,-21.59 7.2,-21.59 h 19.3 v 85.07 l -2.48,1.22 c -28.07,13.73 -59.41,15.9 -80.75,15.31"
         style="fill:#ffffff;fill-opacity:1;fill-rule:nonzero;stroke:none"
         id="path2520"
         inkscape:connector-curvature="0" /><path
         d="m 2386.15,1551.88 v -18.1 c 0,0 21.41,0 27.66,0 0,-8.46 0,-267 0,-275.46 -6.08,0 -25.82,0 -25.82,0 v -17.57 h 116.45 v 17.57 c 0,0 -28.27,0 -35.04,0 0,8.09 0,92.91 0,92.91 0,67.98 17.71,101.55 54.11,102.63 9.69,0.29 16.69,-1.79 21.36,-6.33 8.88,-8.63 9.1,-25.55 9.1,-43.65 0,-0.5 0,-137.21 0,-145.56 -6.61,0 -32.56,0 -32.56,0 v -17.57 h 113.98 v 17.57 c 0,0 -20.85,0 -27.05,0 0,8.36 0,145.16 0,145.16 0,49.17 -19.27,68.84 -71.11,72.57 -28.12,2.16 -54.1,-13.22 -67.83,-29.56 0,23.12 0,105.39 0,105.39 h -83.25"
         style="fill:#ffffff;fill-opacity:1;fill-rule:nonzero;stroke:none"
         id="path2522"
         inkscape:connector-curvature="0" /><path
         d="M 487.543,1965.07 H 383.547 v -297.06 c 0,-13.39 -11.035,-23.64 -23.641,-23.64 h -11.043 c -13.379,0 -23.629,10.25 -23.629,23.64 v 297.06 H 222.012 c -13.399,0 -24.422,8.66 -24.422,22.05 v 8.67 c 0,13.4 11.023,22.06 23.625,22.06 h 265.547 c 13.394,0 24.429,-8.66 24.429,-22.06 v -8.67 c 0,-13.39 -11.035,-22.05 -23.648,-22.05"
         style="fill:#ffffff;fill-opacity:1;fill-rule:nonzero;stroke:none"
         id="path2524"
         inkscape:connector-curvature="0" /><path
         d="M 823.992,1644.37 H 581.305 c -12.594,0 -22.063,9.46 -22.063,22.07 v 329.35 c 0,13.4 10.25,22.06 22.848,22.06 h 230.871 c 13.394,0 23.637,-8.66 23.637,-22.06 v -8.67 c 0,-13.39 -10.243,-22.05 -23.637,-22.05 H 617.555 v -108.74 h 179.652 c 13.391,0 23.637,-8.67 23.637,-22.06 v -8.67 c 0,-13.39 -10.246,-22.06 -23.637,-22.06 H 617.555 v -106.38 h 206.437 c 13.403,0 23.629,-8.66 23.629,-22.05 v -8.67 c 0,-13.4 -10.226,-22.07 -23.629,-22.07"
         style="fill:#ffffff;fill-opacity:1;fill-rule:nonzero;stroke:none"
         id="path2526"
         inkscape:connector-curvature="0" /><path
         d="M 1152.55,1644.37 H 907.504 v 349.84 c 0,13.4 10.25,23.64 23.629,23.64 h 11.047 c 12.601,0 23.636,-10.24 23.636,-23.64 v -297.05 h 186.734 c 13.4,0 23.64,-8.66 23.64,-22.05 v -8.67 c 0,-13.4 -10.24,-22.07 -23.64,-22.07"
         style="fill:#ffffff;fill-opacity:1;fill-rule:nonzero;stroke:none"
         id="path2528"
         inkscape:connector-curvature="0" /><path
         d="m 1479.54,1644.37 h -242.7 c -12.59,0 -22.05,9.46 -22.05,22.07 v 329.35 c 0,13.4 10.24,22.06 22.85,22.06 h 230.87 c 13.38,0 23.65,-8.66 23.65,-22.06 v -8.67 c 0,-13.39 -10.27,-22.05 -23.65,-22.05 h -195.4 v -108.74 h 179.64 c 13.39,0 23.64,-8.67 23.64,-22.06 v -8.67 c 0,-13.39 -10.25,-22.06 -23.64,-22.06 h -179.64 v -106.38 h 206.43 c 13.4,0 23.63,-8.66 23.63,-22.05 v -8.67 c 0,-13.4 -10.23,-22.07 -23.63,-22.07"
         style="fill:#ffffff;fill-opacity:1;fill-rule:nonzero;stroke:none"
         id="path2530"
         inkscape:connector-curvature="0" /><path
         d="m 1804.15,1644.37 h -154.43 c -48.85,0 -86.67,41.76 -86.67,89.83 v 196.2 c 0,48.06 40.97,87.45 89.83,87.45 h 141.83 c 13.39,0 23.63,-8.66 23.63,-22.06 v -8.67 c 0,-13.39 -10.24,-22.05 -23.63,-22.05 h -121.35 c -37.82,0 -52,-22.07 -52,-51.22 v -167.83 c 0,-37.03 23.63,-48.86 52.78,-48.86 h 130.01 c 13.4,0 23.65,-8.66 23.65,-22.05 v -8.67 c 0,-13.4 -10.25,-22.07 -23.65,-22.07"
         style="fill:#ffffff;fill-opacity:1;fill-rule:nonzero;stroke:none"
         id="path2532"
         inkscape:connector-curvature="0" /><path
         d="m 2128.77,1921.73 c 0,23.64 -19.7,43.34 -43.34,43.34 h -100.06 c -24.43,0 -43.34,-19.7 -43.34,-43.34 V 1740.5 c 0,-24.42 18.91,-43.34 42.55,-43.34 h 100.85 c 23.64,0 43.34,18.92 43.34,43.34 z m -29.15,-277.36 h -128.44 c -48.85,0 -87.45,40.19 -87.45,88.25 v 198.56 c 0,48.07 41.75,86.67 90.61,86.67 h 122.12 c 48.86,0 90.62,-38.6 90.62,-86.67 v -198.56 c 0,-48.06 -39.39,-88.25 -87.46,-88.25"
         style="fill:#ffffff;fill-opacity:1;fill-rule:nonzero;stroke:none"
         id="path2534"
         inkscape:connector-curvature="0" /><path
         d="m 2584.2,1644.37 h -11.04 c -12.6,0 -23.63,10.25 -23.63,23.64 V 1917 l -78.8,-110.31 c -7.08,-9.46 -13.39,-17.33 -25.2,-17.33 h -7.89 c -11.82,0 -18.12,7.87 -25.21,17.33 L 2333.64,1917 v -248.99 c 0,-13.39 -11.03,-23.64 -23.65,-23.64 h -11.03 c -13.39,0 -23.63,10.25 -23.63,23.64 v 327.78 c 0,12.61 8.67,22.06 22.06,22.06 h 14.18 c 10.25,0 18.91,-9.45 24.43,-17.33 l 105.58,-148.92 106.38,148.92 c 5.52,7.88 13.39,17.33 23.63,17.33 h 14.18 c 13.4,0 22.06,-9.45 22.06,-22.06 v -327.78 c 0,-13.39 -10.23,-23.64 -23.63,-23.64"
         style="fill:#ffffff;fill-opacity:1;fill-rule:nonzero;stroke:none"
         id="path2536"
         inkscape:connector-curvature="0" /></g></g></svg>